<?xml version="1.0" encoding="UTF-8" standalone="no"?>
<!DOCTYPE svg PUBLIC "-//W3C//DTD SVG 1.1//EN" "http://www.w3.org/Graphics/SVG/1.1/DTD/svg11.dtd">
<svg width="100%" height="100%" viewBox="0 0 277 91" version="1.1" xmlns="http://www.w3.org/2000/svg" xmlns:xlink="http://www.w3.org/1999/xlink" xml:space="preserve" xmlns:serif="http://www.serif.com/" style="fill-rule:evenodd;clip-rule:evenodd;stroke-linejoin:round;stroke-miterlimit:2;">
    <g transform="matrix(1,0,0,1,-1732,-486)">
        <g id="Page-8" serif:id="Page 8" transform="matrix(0.176112,0,0,0.20759,1426.962337,384.920488)">
            <rect x="1732.062" y="486.918" width="1568.317" height="436.918" style="fill:none;"/>
            <g transform="matrix(5.678192,0,0,12.994839,-12301.121213,-763.502478)">
                <g>
                    <g transform="matrix(1,0,0,0.3707,44.58754,0)">
                        <path d="M2527.572,325.047L2436.83,324.223C2436.83,324.223 2445.014,279.991 2483.18,279.991C2521.346,279.991 2527.244,319.64 2527.572,325.047Z" style="fill:rgb(252,190,36);"/>
                    </g>
                    <g transform="matrix(0.130262,0,0,0.048288,2464.950718,89.932629)">
                        <path d="M186.493,606.948C199.044,607.133 199.017,607.633 220.492,607.91C240.007,608.162 239.986,608.478 259.494,608.76C268.526,608.891 270.132,608.68 270.7,609.262C272.124,610.723 270.39,611.087 270.24,623.499C270.012,642.321 271.506,643.152 269.682,643.873C268.62,644.294 268.563,644.156 182.5,644.146C178.339,644.146 130.582,644.14 130.493,644.141C127.617,644.168 126.658,644.383 126.595,641.498C126.182,622.642 125.62,594.19 135.468,550.494C136.989,543.745 141.97,524.591 146.416,512.47C149.531,503.979 151.27,497.897 159.339,480.427C172.477,451.985 190.338,425.651 200.686,412.645C205.31,406.834 205.24,406.805 210.077,401.146C211.335,399.675 211.2,399.587 215.649,394.632C230.401,378.199 240.798,367.796 262.332,350.288C269.531,344.435 283.862,334.538 285.53,333.546C287.711,332.249 289.622,330.523 302.711,322.867C307.818,319.879 318.107,314.113 321.523,312.544C323.157,311.793 327.091,309.892 327.574,309.659C342.512,302.442 344.803,301.804 357.575,296.689C357.931,296.546 374.094,290.802 376.419,290.227C382.013,288.842 403.409,281.356 431.522,277.657C433.433,277.405 448.372,275.439 455.479,275.104C458.651,274.954 460.281,273.968 485.503,274.142C501.523,274.252 501.525,274.095 517.477,275.739C523.074,276.316 563.453,279.224 613.343,298.895C621.201,301.994 640.689,311.114 645.326,313.823C646.533,314.529 646.686,314.233 660.608,322.313C664.671,324.67 664.769,324.902 664.933,325.288C665.55,326.738 664.943,326.723 663.841,327.838C662.051,329.649 661.894,329.485 641.13,350.131C633.849,357.372 633.776,357.265 626.537,364.537C625.819,365.259 622.681,368.412 617.495,373.495C614.203,376.722 614.178,376.671 610.975,379.973C607.309,383.752 603.997,386.57 600.949,389.923C598.665,392.434 588.338,402.198 582.829,407.823C582.714,407.94 571.734,418.819 570.769,419.775C558.055,432.373 558.071,433.678 555.435,432.67C549.125,430.258 537.253,424.324 509.438,419.897C507.355,419.565 490.435,417.311 471.499,418.489C468.596,418.67 465.611,419.117 464.889,418.186C464.44,417.607 464.334,417.514 464.4,372.5C464.436,347.985 464.724,348.003 464.532,323.499C464.504,319.876 462.322,320.801 458.478,321.081C425.814,323.467 398.539,331.973 385.416,336.248C377.434,338.848 377.567,339.163 369.675,341.971C366.535,343.089 346.416,351.083 326.32,363.197C325.807,363.507 320.832,366.344 319.372,367.289C319.112,367.458 302.314,377.98 289.367,388.327C288.928,388.679 286.869,389.678 287.565,391.462C287.61,391.579 287.629,391.565 302.336,406.66C312.954,417.559 312.985,417.496 323.622,428.38C324.961,429.752 333.184,438.582 337.877,443.107C340.668,445.799 350.232,455.869 352.741,458.279C355.683,461.106 351.964,460.987 340.218,472.21C333.618,478.515 333.649,478.524 330.175,482.196C328.061,484.43 327.261,482.749 325.278,480.723C312.239,467.411 312.156,467.497 310.867,466.151C304.49,459.489 304.42,459.582 298.11,452.873C296.29,450.938 296.186,451.044 274.907,429.113C266.489,420.436 265.766,420.075 263.843,418.161C262.053,416.38 260.981,414.353 258.682,416.678C258.448,416.914 250.895,425.236 249.583,426.58C246.969,429.257 235.407,443.728 233.919,445.817C227.007,455.515 224.734,457.578 213.702,476.619C207.537,487.257 207.462,487.207 201.336,500.427C199.265,504.896 199.245,504.861 197.185,509.36C195.795,512.395 188.213,531.59 186.042,539.378C184.533,544.793 176.429,570.905 174.205,598.474C173.685,604.918 173.541,604.936 173.728,605.465C174.411,607.402 175.354,606.945 186.493,606.948Z" style="fill:rgb(72,61,139);"/>
                    </g>
                    <g transform="matrix(0.130262,0,0,0.048288,2464.950718,89.932629)">
                        <path d="M694.318,632.498C694.347,623.183 694.676,619.505 692.816,604.46C691.855,596.687 690.11,587.062 687.802,578.419C679.928,548.93 671.812,535.471 665.087,522.716C662.046,516.948 653.241,504.119 652.689,503.369C650.475,500.364 651.01,499.939 652.802,496.673C654.599,493.399 670.094,466.667 672.108,463.275C675.835,456.997 677.279,453.965 678.244,452.357C682.674,444.976 708.649,399.314 710.79,395.675C711.259,394.877 711.252,394.875 717.611,383.562C718.156,382.592 724.401,371.482 724.442,371.445C725.563,370.454 726.47,371.229 726.601,371.342C732.003,375.962 740.448,385.155 741.598,386.408C750.214,395.787 753.231,398.939 763.762,412.302C770.959,421.437 770.639,421.663 774.299,426.641C776.457,429.577 782.02,438.296 782.74,439.345C783.693,440.735 785.688,444.101 785.811,444.293C788.949,449.236 788.869,449.269 791.776,454.342C805.906,479.009 815.997,505.094 818.314,512.559C821.296,522.17 824.261,528.839 829.747,552.452C830.512,555.743 833.611,571.417 834.348,578.517C834.537,580.343 834.982,581.697 835.16,583.532C835.677,588.862 838.963,610.329 837.812,641.516C837.716,644.109 837.09,644.223 834.503,644.204C823.807,644.123 794.02,644.122 790.5,644.122C782.501,644.128 774.501,644.133 766.502,644.139C697.851,644.071 695.781,644.329 694.404,643.616C693.284,643.036 694.105,642.6 694.318,632.498Z" style="fill:rgb(72,61,139);"/>
                    </g>
                    <g transform="matrix(0.130262,0,0,0.048288,2464.950718,89.932629)">
                        <path d="M471.552,682.12C470.214,681.838 467.949,681.59 462.445,679.646C443.771,673.05 436.205,657.887 434.729,655.373C427.19,642.535 427.656,624.542 431.747,613.589C436.951,599.655 443.102,595.521 454.339,584.34C475.084,563.699 474.939,563.56 476.779,561.803C482.511,556.329 493.654,544.993 493.821,544.828C525.782,513.291 525.63,513.147 528.443,510.44C532.785,506.261 532.73,506.235 536.943,501.925C542.875,495.857 543.167,496.173 548.96,489.955C551.912,486.786 557.636,481.154 558.403,480.401C560.637,478.202 566.612,472.132 568.381,470.382C581.807,457.101 581.882,457.203 583.008,456.01C584.755,454.159 589.664,448.96 605.385,433.382C630.495,408.493 655.605,383.605 680.715,358.716C696.36,343.079 696.324,343.048 697.686,341.69C704.568,334.827 704.156,334.448 704.788,333.888C705.986,332.825 706.654,334.327 706.656,334.494C706.66,334.976 703.318,340.159 701.971,342.727C696.319,353.511 686.648,369.829 682.083,378.273C680.572,381.068 680.42,380.954 678.898,383.726C674.33,392.043 674.227,391.971 673.831,392.694C673.368,393.537 669.113,401.295 668.02,403.222C667.471,404.188 661.411,414.863 661.147,415.294C656.041,423.636 649.484,435.798 649.171,436.309C644.185,444.463 638.538,454.624 637.061,457.251C635.664,459.737 618.949,488.691 617.371,491.424C616.905,492.232 612.254,500.289 611.595,501.554C611.494,501.748 610.192,504.035 610.07,504.25C606.792,510.007 606.717,509.961 606.446,510.469C601.288,520.121 594.739,530.975 592.31,535.394C589.701,540.141 589.608,540.06 586.993,544.783C579.612,558.116 579.278,557.906 576.315,563.396C571.217,572.842 571.028,572.727 570.598,573.554C570.085,574.54 554.539,601.922 548.876,611.714C537.951,630.603 538.243,630.745 537.277,632.376C534.293,637.411 528.887,647.034 528.167,648.314C521.93,659.416 522.488,659.939 515.04,668.067C514.175,669.011 507.739,674.646 501.588,677.676C487.775,684.481 476.717,682.688 471.552,682.12Z" style="fill:rgb(72,61,139);"/>
                    </g>
                </g>
                <g transform="matrix(3.777699,0,0,1.187104,-5211.489291,-66.709539)">
                    <path d="M2064.512,149.379C2064.811,148.305 2065.096,147.26 2065.368,146.243C2065.483,145.827 2065.602,145.382 2065.724,144.91C2065.846,144.437 2065.969,143.962 2066.091,143.486C2066.213,143.009 2066.328,142.551 2066.437,142.11C2066.546,141.67 2066.637,141.277 2066.712,140.933C2067.085,140.933 2067.438,140.909 2067.771,140.861C2067.941,140.837 2068.116,140.813 2068.296,140.789C2068.476,140.765 2068.661,140.745 2068.851,140.729L2068.79,141.317C2068.776,141.43 2068.762,141.544 2068.749,141.66C2068.735,141.776 2068.722,141.894 2068.708,142.014C2068.694,142.134 2068.678,142.257 2068.657,142.381C2068.637,142.505 2068.62,142.631 2068.606,142.759C2068.579,143.007 2068.538,143.354 2068.484,143.798C2068.43,144.243 2068.365,144.725 2068.291,145.246L2068.423,145.246C2068.62,144.637 2068.783,144.131 2068.912,143.726C2069.041,143.322 2069.146,142.991 2069.227,142.735C2069.343,142.359 2069.468,141.978 2069.604,141.594C2069.74,141.209 2069.852,140.913 2069.94,140.705C2070.103,140.689 2070.298,140.663 2070.526,140.627C2070.753,140.591 2070.984,140.549 2071.218,140.501C2071.453,140.452 2071.655,140.412 2071.824,140.38C2071.729,141.053 2071.643,141.732 2071.565,142.417C2071.487,143.101 2071.419,143.754 2071.361,144.375C2071.303,144.996 2071.254,145.554 2071.213,146.051C2071.173,146.547 2071.135,147.038 2071.101,147.522C2071.067,148.007 2071.033,148.486 2070.999,148.958L2069.227,149.331C2069.227,149.314 2069.238,149.134 2069.258,148.79C2069.278,148.446 2069.312,148.017 2069.36,147.504C2069.407,146.992 2069.455,146.505 2069.502,146.045C2069.55,145.584 2069.597,145.206 2069.645,144.91L2069.553,144.91C2069.384,145.518 2069.178,146.183 2068.937,146.904C2068.696,147.625 2068.46,148.421 2068.229,149.294C2067.992,149.302 2067.788,149.312 2067.618,149.324C2067.449,149.337 2067.252,149.351 2067.028,149.367L2067.354,144.91L2067.201,144.91C2067.194,144.998 2067.164,145.168 2067.109,145.42C2067.055,145.672 2066.99,145.961 2066.916,146.285C2066.841,146.609 2066.763,146.932 2066.681,147.252C2066.376,148.51 2066.213,149.174 2066.193,149.246L2064.512,149.379Z" style="fill:rgb(72,61,139);fill-rule:nonzero;"/>
                    <path d="M2072.965,149.499C2072.517,149.499 2072.15,149.294 2071.865,148.886C2071.58,148.478 2071.437,147.861 2071.437,147.036C2071.437,146.579 2071.485,146.099 2071.58,145.594C2071.675,145.09 2071.807,144.593 2071.977,144.105C2072.147,143.616 2072.344,143.164 2072.568,142.747C2072.928,142.074 2073.342,141.526 2073.81,141.101C2074.279,140.677 2074.771,140.465 2075.287,140.465C2075.694,140.465 2076.008,140.587 2076.229,140.831C2076.449,141.075 2076.604,141.388 2076.692,141.768C2076.78,142.148 2076.825,142.543 2076.825,142.951C2076.825,143.904 2076.701,144.791 2076.453,145.612C2076.205,146.433 2075.884,147.128 2075.49,147.697C2075.097,148.281 2074.677,148.728 2074.233,149.036C2073.788,149.345 2073.365,149.499 2072.965,149.499ZM2073.515,147.516C2073.82,147.516 2074.09,147.396 2074.324,147.156C2074.559,146.916 2074.757,146.609 2074.92,146.237C2075.083,145.865 2075.205,145.474 2075.287,145.066C2075.368,144.657 2075.409,144.289 2075.409,143.96C2075.409,143.832 2075.399,143.694 2075.378,143.546C2075.358,143.398 2075.314,143.268 2075.246,143.156C2075.178,143.043 2075.073,142.987 2074.93,142.987C2074.618,142.987 2074.336,143.121 2074.085,143.39C2073.834,143.658 2073.623,143.996 2073.454,144.405C2073.284,144.821 2073.158,145.23 2073.077,145.63C2072.995,146.031 2072.955,146.395 2072.955,146.724C2072.955,146.892 2073.006,147.066 2073.107,147.246C2073.209,147.426 2073.345,147.516 2073.515,147.516Z" style="fill:rgb(72,61,139);fill-rule:nonzero;"/>
                    <path d="M2077.059,149.463C2077.133,149.022 2077.21,148.584 2077.288,148.147C2077.366,147.711 2077.439,147.28 2077.507,146.856C2077.765,145.334 2077.975,143.876 2078.138,142.483C2078.064,142.467 2077.986,142.457 2077.904,142.453C2077.823,142.449 2077.744,142.451 2077.67,142.459C2077.507,142.475 2077.347,142.451 2077.191,142.387C2077.198,142.323 2077.201,142.253 2077.201,142.176L2077.201,141.684C2077.201,141.6 2077.205,141.518 2077.212,141.438C2077.218,141.35 2077.222,141.255 2077.222,141.155C2077.222,141.055 2077.225,140.953 2077.232,140.849C2077.408,140.865 2077.585,140.877 2077.761,140.885C2077.938,140.893 2078.115,140.897 2078.291,140.897C2078.793,140.897 2079.274,140.877 2079.732,140.837C2080.19,140.797 2080.613,140.749 2081,140.693L2080.888,141.341L2080.796,141.906C2080.762,142.114 2080.732,142.279 2080.705,142.399C2080.63,142.423 2080.555,142.443 2080.481,142.459C2080.406,142.475 2080.331,142.487 2080.257,142.495C2080.182,142.503 2080.105,142.515 2080.027,142.531C2079.949,142.547 2079.873,142.563 2079.798,142.579C2079.696,143.172 2079.613,143.684 2079.549,144.117C2079.484,144.549 2079.427,144.964 2079.376,145.36C2079.325,145.756 2079.265,146.191 2079.197,146.663C2079.082,147.472 2078.98,148.293 2078.892,149.126L2077.059,149.463Z" style="fill:rgb(72,61,139);fill-rule:nonzero;"/>
                    <path d="M2081.672,149.499C2081.224,149.499 2080.857,149.294 2080.572,148.886C2080.287,148.478 2080.144,147.861 2080.144,147.036C2080.144,146.579 2080.192,146.099 2080.287,145.594C2080.382,145.09 2080.514,144.593 2080.684,144.105C2080.854,143.616 2081.051,143.164 2081.275,142.747C2081.635,142.074 2082.049,141.526 2082.517,141.101C2082.986,140.677 2083.478,140.465 2083.994,140.465C2084.401,140.465 2084.715,140.587 2084.936,140.831C2085.157,141.075 2085.311,141.388 2085.399,141.768C2085.488,142.148 2085.532,142.543 2085.532,142.951C2085.532,143.904 2085.408,144.791 2085.16,145.612C2084.912,146.433 2084.591,147.128 2084.198,147.697C2083.804,148.281 2083.385,148.728 2082.94,149.036C2082.495,149.345 2082.073,149.499 2081.672,149.499ZM2082.222,147.516C2082.527,147.516 2082.797,147.396 2083.032,147.156C2083.266,146.916 2083.464,146.609 2083.627,146.237C2083.79,145.865 2083.912,145.474 2083.994,145.066C2084.075,144.657 2084.116,144.289 2084.116,143.96C2084.116,143.832 2084.106,143.694 2084.086,143.546C2084.065,143.398 2084.021,143.268 2083.953,143.156C2083.885,143.043 2083.78,142.987 2083.638,142.987C2083.325,142.987 2083.043,143.121 2082.792,143.39C2082.541,143.658 2082.331,143.996 2082.161,144.405C2081.991,144.821 2081.866,145.23 2081.784,145.63C2081.703,146.031 2081.662,146.395 2081.662,146.724C2081.662,146.892 2081.713,147.066 2081.815,147.246C2081.916,147.426 2082.052,147.516 2082.222,147.516Z" style="fill:rgb(72,61,139);fill-rule:nonzero;"/>
                    <path d="M2084.89,149.463L2085.42,146.339C2085.501,145.762 2085.589,145.17 2085.684,144.561C2085.78,143.952 2085.869,143.352 2085.954,142.759C2086.039,142.166 2086.105,141.61 2086.153,141.089C2086.54,140.945 2086.957,140.839 2087.406,140.771C2087.854,140.703 2088.298,140.669 2088.74,140.669C2089.256,140.669 2089.607,140.801 2089.794,141.065C2089.98,141.329 2090.074,141.686 2090.074,142.134C2090.074,142.543 2089.992,142.953 2089.829,143.366C2089.666,143.778 2089.454,144.151 2089.193,144.483C2088.931,144.815 2088.645,145.078 2088.332,145.27C2088.454,145.59 2088.585,145.941 2088.724,146.321C2088.864,146.702 2088.994,147.064 2089.116,147.408C2089.184,147.609 2089.254,147.809 2089.325,148.009C2089.396,148.209 2089.466,148.409 2089.534,148.61L2087.955,149.258L2087.589,147.817C2087.487,147.416 2087.394,147.03 2087.309,146.657C2087.224,146.285 2087.175,146.023 2087.161,145.871L2087.029,145.919C2087.008,146.047 2086.986,146.185 2086.963,146.333C2086.939,146.481 2086.913,146.643 2086.886,146.82C2086.859,146.996 2086.832,147.166 2086.805,147.33C2086.778,147.494 2086.75,147.657 2086.723,147.817L2086.54,148.958L2084.89,149.463ZM2087.283,144.249C2087.406,144.233 2087.557,144.171 2087.737,144.063C2087.916,143.954 2088.096,143.82 2088.276,143.66C2088.456,143.5 2088.607,143.336 2088.729,143.168C2088.852,142.999 2088.913,142.851 2088.913,142.723C2088.913,142.563 2088.833,142.457 2088.673,142.405C2088.514,142.353 2088.305,142.327 2088.047,142.327L2087.823,142.327C2087.782,142.335 2087.745,142.339 2087.711,142.339L2087.609,142.339L2087.283,144.249Z" style="fill:rgb(72,61,139);fill-rule:nonzero;"/>
                    <path d="M2089.422,149.439C2089.517,148.974 2089.612,148.448 2089.707,147.859C2089.802,147.27 2089.897,146.659 2089.992,146.027C2090.087,145.394 2090.176,144.785 2090.257,144.201C2090.332,143.688 2090.405,143.168 2090.476,142.639C2090.547,142.11 2090.617,141.578 2090.685,141.041L2092.273,140.741L2091.815,143.9C2091.713,144.645 2091.623,145.314 2091.545,145.907C2091.467,146.499 2091.393,147.06 2091.321,147.589C2091.25,148.117 2091.177,148.658 2091.102,149.21C2090.973,149.21 2090.817,149.22 2090.634,149.24C2090.451,149.26 2090.267,149.284 2090.084,149.312C2089.901,149.341 2089.746,149.367 2089.621,149.391C2089.495,149.415 2089.429,149.431 2089.422,149.439Z" style="fill:rgb(72,61,139);fill-rule:nonzero;"/>
                    <path d="M2093.17,149.475C2092.898,149.475 2092.626,149.389 2092.355,149.216C2092.083,149.044 2091.822,148.77 2091.571,148.393L2092.324,146.651C2092.399,146.804 2092.509,146.948 2092.655,147.084C2092.801,147.22 2092.956,147.328 2093.119,147.408C2093.282,147.488 2093.421,147.528 2093.536,147.528C2093.713,147.528 2093.881,147.464 2094.04,147.336C2094.2,147.208 2094.28,147.036 2094.28,146.82C2094.28,146.539 2094.171,146.283 2093.954,146.051C2093.736,145.819 2093.492,145.59 2093.221,145.366C2092.956,145.142 2092.713,144.887 2092.492,144.603C2092.272,144.319 2092.161,143.992 2092.161,143.624C2092.161,143.208 2092.263,142.821 2092.467,142.465C2092.671,142.108 2092.935,141.796 2093.261,141.528C2093.587,141.259 2093.935,141.051 2094.305,140.903C2094.675,140.755 2095.026,140.681 2095.359,140.681C2095.597,140.681 2095.817,140.727 2096.021,140.819C2096.225,140.911 2096.388,141.061 2096.51,141.269C2096.632,141.478 2096.693,141.758 2096.693,142.11C2096.693,142.166 2096.691,142.222 2096.688,142.279C2096.685,142.335 2096.68,142.391 2096.673,142.447C2096.666,142.503 2096.658,142.561 2096.647,142.621C2096.637,142.681 2096.629,142.743 2096.622,142.807L2095.145,143.312C2095.159,143.248 2095.171,143.184 2095.181,143.119C2095.191,143.055 2095.196,142.991 2095.196,142.927C2095.196,142.687 2095.161,142.513 2095.089,142.405C2095.018,142.297 2094.925,142.243 2094.809,142.243C2094.748,142.243 2094.66,142.281 2094.544,142.357C2094.429,142.433 2094.325,142.537 2094.234,142.669C2094.142,142.801 2094.096,142.947 2094.096,143.107C2094.096,143.372 2094.19,143.59 2094.376,143.762C2094.563,143.934 2094.779,144.109 2095.023,144.285C2095.138,144.365 2095.267,144.491 2095.41,144.663C2095.553,144.835 2095.677,145.068 2095.782,145.36C2095.887,145.652 2095.94,146.027 2095.94,146.483C2095.94,147.076 2095.816,147.597 2095.568,148.045C2095.32,148.494 2094.986,148.844 2094.565,149.096C2094.144,149.349 2093.679,149.475 2093.17,149.475Z" style="fill:rgb(72,61,139);fill-rule:nonzero;"/>
                    <path d="M2096.724,149.463C2096.798,149.022 2096.875,148.584 2096.953,148.147C2097.031,147.711 2097.104,147.28 2097.172,146.856C2097.43,145.334 2097.64,143.876 2097.803,142.483C2097.729,142.467 2097.65,142.457 2097.569,142.453C2097.488,142.449 2097.409,142.451 2097.335,142.459C2097.172,142.475 2097.012,142.451 2096.856,142.387C2096.863,142.323 2096.866,142.253 2096.866,142.176L2096.866,141.684C2096.866,141.6 2096.87,141.518 2096.876,141.438C2096.883,141.35 2096.887,141.255 2096.887,141.155C2096.887,141.055 2096.89,140.953 2096.897,140.849C2097.073,140.865 2097.25,140.877 2097.426,140.885C2097.603,140.893 2097.779,140.897 2097.956,140.897C2098.458,140.897 2098.939,140.877 2099.397,140.837C2099.855,140.797 2100.278,140.749 2100.665,140.693L2100.553,141.341L2100.461,141.906C2100.427,142.114 2100.397,142.279 2100.37,142.399C2100.295,142.423 2100.22,142.443 2100.146,142.459C2100.071,142.475 2099.996,142.487 2099.921,142.495C2099.847,142.503 2099.77,142.515 2099.692,142.531C2099.614,142.547 2099.538,142.563 2099.463,142.579C2099.361,143.172 2099.278,143.684 2099.214,144.117C2099.149,144.549 2099.091,144.964 2099.041,145.36C2098.99,145.756 2098.93,146.191 2098.862,146.663C2098.747,147.472 2098.645,148.293 2098.557,149.126L2096.724,149.463Z" style="fill:rgb(72,61,139);fill-rule:nonzero;"/>
                    <path d="M2102.131,149.427C2102.145,149.29 2102.159,149.158 2102.172,149.03C2102.186,148.902 2102.199,148.774 2102.213,148.646L2102.274,147.973C2102.281,147.861 2102.287,147.757 2102.294,147.661C2102.301,147.565 2102.308,147.476 2102.315,147.396L2101.429,147.396L2101.021,149.126C2100.872,149.15 2100.695,149.176 2100.492,149.204C2100.288,149.232 2100.098,149.258 2099.921,149.282C2099.813,149.298 2099.706,149.314 2099.601,149.331C2099.495,149.347 2099.389,149.363 2099.28,149.379L2100.084,146.231C2100.179,145.855 2100.288,145.426 2100.41,144.946C2100.532,144.465 2100.656,143.972 2100.782,143.468C2100.908,142.963 2101.026,142.489 2101.138,142.044C2101.25,141.6 2101.34,141.225 2101.408,140.921C2101.87,140.881 2102.34,140.833 2102.819,140.777C2103.297,140.721 2103.764,140.645 2104.219,140.549C2104.185,140.997 2104.153,141.504 2104.122,142.068C2104.092,142.633 2104.065,143.216 2104.041,143.816C2104.017,144.417 2103.992,145.01 2103.964,145.594C2103.951,146.147 2103.934,146.718 2103.914,147.306C2103.893,147.895 2103.873,148.498 2103.852,149.114C2103.751,149.13 2103.343,149.194 2103.241,149.21C2103.072,149.242 2102.885,149.278 2102.681,149.318C2102.478,149.359 2102.294,149.395 2102.131,149.427ZM2101.673,146.195C2101.714,146.195 2101.79,146.191 2101.902,146.183C2102.014,146.175 2102.121,146.167 2102.223,146.159C2102.325,146.151 2102.386,146.147 2102.406,146.147C2102.406,146.043 2102.42,145.831 2102.447,145.51C2102.474,145.19 2102.501,144.853 2102.529,144.501C2102.542,144.293 2102.557,144.079 2102.574,143.858C2102.591,143.638 2102.61,143.412 2102.63,143.18L2102.691,142.134L2102.539,142.146L2102.304,143.18L2101.673,146.195Z" style="fill:rgb(72,61,139);fill-rule:nonzero;"/>
                    <path d="M2064.94,162.257C2065.015,161.624 2065.094,160.988 2065.179,160.347C2065.264,159.706 2065.352,159.088 2065.444,158.491C2065.536,157.894 2065.622,157.356 2065.704,156.875C2065.792,156.354 2065.88,155.826 2065.969,155.289C2066.057,154.753 2066.149,154.212 2066.244,153.667L2068.026,153.391L2067.496,156.106C2067.401,156.579 2067.304,157.085 2067.206,157.626C2067.107,158.166 2067.018,158.689 2066.936,159.194C2066.855,159.698 2066.79,160.147 2066.743,160.539C2066.912,160.523 2067.094,160.513 2067.287,160.509C2067.481,160.505 2067.652,160.503 2067.802,160.503C2067.808,160.687 2067.822,160.882 2067.842,161.086C2067.863,161.29 2067.885,161.466 2067.909,161.614C2067.932,161.763 2067.944,161.845 2067.944,161.861L2067.868,161.861C2067.844,161.861 2067.819,161.857 2067.792,161.849L2067.629,161.849C2067.364,161.849 2067.07,161.863 2066.748,161.891C2066.425,161.919 2066.106,161.963 2065.79,162.023C2065.475,162.083 2065.191,162.161 2064.94,162.257Z" style="fill:rgb(72,61,139);fill-rule:nonzero;"/>
                    <path d="M2069.574,162.449C2069.37,162.449 2069.163,162.397 2068.952,162.293C2068.742,162.189 2068.565,162.029 2068.423,161.813C2068.28,161.596 2068.209,161.32 2068.209,160.984L2068.209,160.888C2068.209,160.847 2068.212,160.815 2068.219,160.791C2068.24,160.583 2068.268,160.311 2068.306,159.975C2068.343,159.638 2068.389,159.272 2068.443,158.875C2068.498,158.479 2068.554,158.084 2068.611,157.692C2068.669,157.299 2068.722,156.943 2068.769,156.623C2068.871,155.982 2068.952,155.465 2069.014,155.073C2069.075,154.681 2069.124,154.378 2069.161,154.166C2069.199,153.954 2069.227,153.796 2069.248,153.691C2069.322,153.683 2069.402,153.673 2069.487,153.661C2069.572,153.649 2069.662,153.639 2069.757,153.631C2069.852,153.615 2069.945,153.603 2070.037,153.595C2070.129,153.587 2070.219,153.579 2070.307,153.571L2070.928,153.499C2070.84,153.988 2070.757,154.45 2070.679,154.887C2070.601,155.323 2070.528,155.738 2070.46,156.13L2069.991,158.785C2069.95,158.985 2069.92,159.154 2069.9,159.29C2069.872,159.418 2069.844,159.58 2069.813,159.776C2069.782,159.973 2069.767,160.151 2069.767,160.311C2069.767,160.439 2069.794,160.545 2069.849,160.629C2069.903,160.713 2069.971,160.755 2070.052,160.755C2070.168,160.755 2070.263,160.703 2070.337,160.599C2070.412,160.495 2070.473,160.367 2070.521,160.215C2070.568,160.063 2070.606,159.908 2070.633,159.752C2070.66,159.596 2070.684,159.47 2070.704,159.374C2070.772,159.005 2070.835,158.647 2070.892,158.299C2070.95,157.95 2071.011,157.58 2071.076,157.187C2071.14,156.795 2071.213,156.342 2071.295,155.83C2071.349,155.477 2071.405,155.119 2071.463,154.755C2071.52,154.39 2071.576,154.02 2071.631,153.643L2073.179,153.523C2073.179,153.523 2073.148,153.715 2073.087,154.1C2073.026,154.484 2072.938,155.065 2072.822,155.842C2072.775,156.138 2072.722,156.471 2072.664,156.839C2072.607,157.207 2072.544,157.58 2072.476,157.956C2072.408,158.333 2072.345,158.689 2072.288,159.025C2072.23,159.362 2072.177,159.65 2072.13,159.89C2071.994,160.547 2071.784,161.062 2071.498,161.434C2071.213,161.807 2070.899,162.069 2070.556,162.221C2070.214,162.373 2069.886,162.449 2069.574,162.449Z" style="fill:rgb(72,61,139);fill-rule:nonzero;"/>
                    <path d="M2074.014,162.257C2073.586,162.257 2073.236,162.021 2072.965,161.548C2072.693,161.076 2072.558,160.427 2072.558,159.602C2072.558,158.849 2072.646,158.106 2072.822,157.374C2072.999,156.641 2073.247,155.982 2073.566,155.397C2073.885,154.813 2074.263,154.342 2074.701,153.986C2075.139,153.629 2075.623,153.451 2076.152,153.451C2076.485,153.451 2076.77,153.603 2077.008,153.908C2077.245,154.212 2077.364,154.62 2077.364,155.133L2077.364,155.361C2077.364,155.385 2077.361,155.413 2077.354,155.445L2076.02,155.866C2075.939,155.666 2075.844,155.566 2075.735,155.566C2075.572,155.566 2075.401,155.722 2075.221,156.034C2075.041,156.346 2074.869,156.719 2074.706,157.151C2074.598,157.44 2074.501,157.736 2074.416,158.04C2074.331,158.345 2074.265,158.629 2074.218,158.893C2074.17,159.158 2074.146,159.374 2074.146,159.542C2074.146,159.79 2074.177,159.971 2074.238,160.083C2074.285,160.187 2074.36,160.239 2074.462,160.239C2074.564,160.239 2074.676,160.181 2074.798,160.065C2074.92,159.948 2075.034,159.802 2075.139,159.626C2075.244,159.45 2075.314,159.274 2075.348,159.098L2076.509,159.65C2076.176,160.547 2075.781,161.206 2075.322,161.626C2074.864,162.047 2074.428,162.257 2074.014,162.257Z" style="fill:rgb(72,61,139);fill-rule:nonzero;"/>
                    <path d="M2076.417,162.245L2076.947,159.122C2077.028,158.545 2077.116,157.952 2077.212,157.344C2077.307,156.735 2077.397,156.134 2077.481,155.542C2077.566,154.949 2077.632,154.392 2077.68,153.872C2078.067,153.727 2078.485,153.621 2078.933,153.553C2079.381,153.485 2079.825,153.451 2080.267,153.451C2080.783,153.451 2081.134,153.583 2081.321,153.848C2081.507,154.112 2081.601,154.468 2081.601,154.917C2081.601,155.325 2081.519,155.736 2081.356,156.148C2081.193,156.561 2080.981,156.933 2080.72,157.265C2080.458,157.598 2080.172,157.86 2079.859,158.052C2079.982,158.373 2080.112,158.723 2080.251,159.104C2080.391,159.484 2080.521,159.846 2080.643,160.191C2080.711,160.391 2080.781,160.591 2080.852,160.791C2080.924,160.992 2080.993,161.192 2081.061,161.392L2079.483,162.041L2079.116,160.599C2079.014,160.199 2078.921,159.812 2078.836,159.44C2078.751,159.067 2078.702,158.805 2078.688,158.653L2078.556,158.701C2078.535,158.829 2078.513,158.967 2078.49,159.116C2078.466,159.264 2078.44,159.426 2078.413,159.602C2078.386,159.778 2078.359,159.948 2078.332,160.113C2078.305,160.277 2078.277,160.439 2078.25,160.599L2078.067,161.74L2076.417,162.245ZM2078.81,157.031C2078.933,157.015 2079.084,156.953 2079.264,156.845C2079.443,156.737 2079.623,156.603 2079.803,156.443C2079.983,156.282 2080.134,156.118 2080.257,155.95C2080.379,155.782 2080.44,155.634 2080.44,155.505C2080.44,155.345 2080.36,155.239 2080.2,155.187C2080.041,155.135 2079.832,155.109 2079.574,155.109L2079.35,155.109C2079.309,155.117 2079.272,155.121 2079.238,155.121L2079.136,155.121L2078.81,157.031Z" style="fill:rgb(72,61,139);fill-rule:nonzero;"/>
                    <path d="M2083.536,162.209C2083.549,162.073 2083.563,161.941 2083.576,161.813C2083.59,161.684 2083.604,161.556 2083.617,161.428L2083.678,160.755C2083.685,160.643 2083.692,160.539 2083.699,160.443C2083.705,160.347 2083.712,160.259 2083.719,160.179L2082.833,160.179L2082.426,161.909C2082.276,161.933 2082.1,161.959 2081.896,161.987C2081.692,162.015 2081.502,162.041 2081.326,162.065C2081.217,162.081 2081.11,162.097 2081.005,162.113C2080.9,162.129 2080.793,162.145 2080.684,162.161L2081.489,159.013C2081.584,158.637 2081.692,158.209 2081.815,157.728C2081.937,157.247 2082.061,156.755 2082.186,156.25C2082.312,155.746 2082.431,155.271 2082.543,154.827C2082.655,154.382 2082.745,154.008 2082.813,153.703C2083.274,153.663 2083.744,153.615 2084.223,153.559C2084.702,153.503 2085.169,153.427 2085.623,153.331C2085.589,153.78 2085.557,154.286 2085.527,154.851C2085.496,155.415 2085.469,155.998 2085.445,156.599C2085.421,157.199 2085.396,157.792 2085.369,158.377C2085.355,158.929 2085.338,159.5 2085.318,160.089C2085.297,160.677 2085.277,161.28 2085.257,161.897C2085.155,161.913 2084.748,161.977 2084.646,161.993C2084.476,162.025 2084.289,162.061 2084.086,162.101C2083.882,162.141 2083.699,162.177 2083.536,162.209ZM2083.077,158.977C2083.118,158.977 2083.195,158.973 2083.307,158.965C2083.419,158.957 2083.526,158.949 2083.627,158.941C2083.729,158.933 2083.79,158.929 2083.811,158.929C2083.811,158.825 2083.824,158.613 2083.851,158.293C2083.879,157.972 2083.906,157.636 2083.933,157.283C2083.946,157.075 2083.962,156.861 2083.979,156.641C2083.996,156.42 2084.014,156.194 2084.035,155.962L2084.096,154.917L2083.943,154.929L2083.709,155.962L2083.077,158.977Z" style="fill:rgb(72,61,139);fill-rule:nonzero;"/>
                    <path d="M2086.224,162.245C2086.299,161.805 2086.375,161.366 2086.453,160.93C2086.531,160.493 2086.604,160.063 2086.672,159.638C2086.93,158.116 2087.141,156.659 2087.304,155.265C2087.229,155.249 2087.151,155.239 2087.069,155.235C2086.988,155.231 2086.91,155.233 2086.835,155.241C2086.672,155.257 2086.513,155.233 2086.357,155.169C2086.363,155.105 2086.367,155.035 2086.367,154.959L2086.367,154.466C2086.367,154.382 2086.37,154.3 2086.377,154.22C2086.384,154.132 2086.387,154.038 2086.387,153.938C2086.387,153.838 2086.391,153.735 2086.397,153.631C2086.574,153.647 2086.75,153.659 2086.927,153.667C2087.103,153.675 2087.28,153.679 2087.456,153.679C2087.959,153.679 2088.439,153.659 2088.897,153.619C2089.356,153.579 2089.778,153.531 2090.165,153.475L2090.053,154.124L2089.962,154.689C2089.928,154.897 2089.897,155.061 2089.87,155.181C2089.795,155.205 2089.721,155.225 2089.646,155.241C2089.571,155.257 2089.497,155.269 2089.422,155.277C2089.347,155.285 2089.271,155.297 2089.193,155.313C2089.115,155.329 2089.038,155.345 2088.964,155.361C2088.862,155.954 2088.779,156.467 2088.714,156.899C2088.65,157.332 2088.592,157.746 2088.541,158.142C2088.49,158.539 2088.431,158.973 2088.363,159.446C2088.247,160.255 2088.146,161.076 2088.057,161.909L2086.224,162.245Z" style="fill:rgb(72,61,139);fill-rule:nonzero;"/>
                    <path d="M2089.045,162.221C2089.14,161.757 2089.235,161.23 2089.33,160.641C2089.425,160.053 2089.52,159.442 2089.615,158.809C2089.71,158.176 2089.799,157.568 2089.88,156.983C2089.955,156.471 2090.028,155.95 2090.099,155.421C2090.17,154.893 2090.24,154.36 2090.308,153.824L2091.897,153.523L2091.438,156.683C2091.336,157.428 2091.247,158.096 2091.168,158.689C2091.09,159.282 2091.016,159.842 2090.944,160.371C2090.873,160.9 2090.8,161.44 2090.725,161.993C2090.596,161.993 2090.44,162.003 2090.257,162.023C2090.074,162.043 2089.89,162.067 2089.707,162.095C2089.524,162.123 2089.369,162.149 2089.244,162.173C2089.118,162.197 2089.052,162.213 2089.045,162.221Z" style="fill:rgb(72,61,139);fill-rule:nonzero;"/>
                    <path d="M2091.652,162.341C2091.7,161.781 2091.744,161.224 2091.785,160.671C2091.825,160.119 2091.863,159.574 2091.897,159.037C2091.971,158.06 2092.031,157.099 2092.075,156.154C2092.119,155.209 2092.148,154.324 2092.161,153.499C2092.691,153.499 2093.088,153.485 2093.353,153.457C2093.618,153.429 2093.75,153.415 2093.75,153.415C2093.716,153.88 2093.682,154.302 2093.648,154.683C2093.614,155.063 2093.584,155.401 2093.557,155.698L2093.434,157.151C2093.4,157.592 2093.372,157.964 2093.348,158.269C2093.324,158.573 2093.302,158.853 2093.282,159.11C2093.261,159.366 2093.234,159.646 2093.2,159.95L2093.383,159.95L2094.524,153.559L2095.084,153.523C2095.172,153.515 2095.261,153.509 2095.349,153.505C2095.437,153.501 2095.529,153.495 2095.624,153.487C2095.719,153.479 2095.809,153.471 2095.894,153.463C2095.979,153.455 2096.058,153.447 2096.133,153.439C2096.004,153.912 2095.873,154.44 2095.741,155.025C2095.609,155.61 2095.476,156.214 2095.344,156.839C2095.211,157.464 2095.077,158.08 2094.942,158.689C2094.833,159.202 2094.724,159.724 2094.616,160.257C2094.507,160.789 2094.398,161.328 2094.29,161.873L2091.652,162.341Z" style="fill:rgb(72,61,139);fill-rule:nonzero;"/>
                    <path d="M2096.754,162.281C2096.306,162.281 2095.94,162.077 2095.654,161.668C2095.369,161.26 2095.227,160.643 2095.227,159.818C2095.227,159.362 2095.274,158.881 2095.369,158.377C2095.464,157.872 2095.597,157.376 2095.766,156.887C2095.936,156.398 2096.133,155.946 2096.357,155.529C2096.717,154.857 2097.131,154.308 2097.6,153.884C2098.068,153.459 2098.56,153.247 2099.076,153.247C2099.484,153.247 2099.798,153.369 2100.018,153.613C2100.239,153.858 2100.393,154.17 2100.482,154.55C2100.57,154.931 2100.614,155.325 2100.614,155.734C2100.614,156.687 2100.49,157.574 2100.242,158.395C2099.994,159.216 2099.674,159.91 2099.28,160.479C2098.886,161.064 2098.467,161.51 2098.022,161.819C2097.577,162.127 2097.155,162.281 2096.754,162.281ZM2097.304,160.299C2097.61,160.299 2097.88,160.179 2098.114,159.938C2098.348,159.698 2098.547,159.392 2098.71,159.019C2098.873,158.647 2098.995,158.257 2099.076,157.848C2099.158,157.44 2099.198,157.071 2099.198,156.743C2099.198,156.615 2099.188,156.477 2099.168,156.328C2099.147,156.18 2099.103,156.05 2099.035,155.938C2098.968,155.826 2098.862,155.77 2098.72,155.77C2098.407,155.77 2098.126,155.904 2097.875,156.172C2097.623,156.441 2097.413,156.779 2097.243,157.187C2097.073,157.604 2096.948,158.012 2096.866,158.413C2096.785,158.813 2096.744,159.178 2096.744,159.506C2096.744,159.674 2096.795,159.848 2096.897,160.029C2096.999,160.209 2097.134,160.299 2097.304,160.299Z" style="fill:rgb(72,61,139);fill-rule:nonzero;"/>
                </g>
            </g>
        </g>
    </g>
</svg>
